{
  "accessors": [
    {
      "bufferView": 2,
      "componentType": 5126,
      "count": 32,
      "max": [
        29.421634674072266,
        2.384185791015625e-07,
        29.421632766723633
      ],
      "min": [
        -29.421634674072266,
        0.0,
        -29.421634674072266
      ],
      "type": "VEC3"
    },
    {
      "bufferView": 2,
      "byteOffset": 384,
      "componentType": 5126,
      "count": 32,
      "max": [
        1.4840802364801675e-08,
        1.0,
        9.303165349194842e-09
      ],
      "min": [
        -5.92138160726563e-09,
        1.0,
        -2.06043324624261e-08
      ],
      "type": "VEC3"
    },
    {
      "bufferView": 1,
      "componentType": 5126,
      "count": 32,
      "max": [
        0.5157159566879272,
        0.5093685388565063
      ],
      "min": [
        0.007675706874579191,
        0.0013283491134643555
      ],
      "type": "VEC2"
    },
    {
      "bufferView": 1,
      "byteOffset": 256,
      "componentType": 5126,
      "count": 32,
      "max": [
        0.5157159566879272,
        0.5093685388565063
      ],
      "min": [
        0.007675706874579191,
        0.0013283491134643555
      ],
      "type": "VEC2"
    },
    {
      "bufferView": 0,
      "componentType": 5125,
      "count": 96,
      "type": "SCALAR"
    },
    {
      "bufferView": 2,
      "byteOffset": 768,
      "componentType": 5126,
      "count": 32,
      "max": [
        26.353906631469727,
        7.386626243591309,
        26.353904724121094
      ],
      "min": [
        -26.353906631469727,
        7.386626243591309,
        -26.353906631469727
      ],
      "type": "VEC3"
    },
    {
      "bufferView": 2,
      "byteOffset": 1152,
      "componentType": 5126,
      "count": 32,
      "max": [
        0.0,
        1.0,
        4.016636623305203e-08
      ],
      "min": [
        0.0,
        1.0,
        -3.220393551828238e-08
      ],
      "type": "VEC3"
    },
    {
      "bufferView": 1,
      "byteOffset": 512,
      "componentType": 5126,
      "count": 32,
      "max": [
        0.4800843596458435,
        0.987947404384613
      ],
      "min": [
        0.018262401223182678,
        0.5261254906654358
      ],
      "type": "VEC2"
    },
    {
      "bufferView": 1,
      "byteOffset": 768,
      "componentType": 5126,
      "count": 32,
      "max": [
        0.4800843596458435,
        0.987947404384613
      ],
      "min": [
        0.018262401223182678,
        0.5261254906654358
      ],
      "type": "VEC2"
    },
    {
      "bufferView": 0,
      "byteOffset": 384,
      "componentType": 5125,
      "count": 96,
      "type": "SCALAR"
    },
    {
      "bufferView": 2,
      "byteOffset": 1536,
      "componentType": 5126,
      "count": 17,
      "max": [
        -30.152009963989258,
        4.072742462158203,
        9.85827350616455
      ],
      "min": [
        -49.86855697631836,
        4.072742462158203,
        -9.858274459838867
      ],
      "type": "VEC3"
    },
    {
      "bufferView": 2,
      "byteOffset": 1740,
      "componentType": 5126,
      "count": 17,
      "max": [
        0.0,
        1.0,
        4.933288266784075e-08
      ],
      "min": [
        0.0,
        1.0,
        -4.9332925300404895e-08
      ],
      "type": "VEC3"
    },
    {
      "bufferView": 1,
      "byteOffset": 1024,
      "componentType": 5126,
      "count": 17,
      "max": [
        0.7470308542251587,
        0.487361878156662
      ],
      "min": [
        0.5421167016029358,
        0.28244778513908386
      ],
      "type": "VEC2"
    },
    {
      "bufferView": 1,
      "byteOffset": 1160,
      "componentType": 5126,
      "count": 17,
      "max": [
        0.7470308542251587,
        0.487361878156662
      ],
      "min": [
        0.5421167016029358,
        0.28244778513908386
      ],
      "type": "VEC2"
    },
    {
      "bufferView": 0,
      "byteOffset": 768,
      "componentType": 5125,
      "count": 48,
      "type": "SCALAR"
    },
    {
      "bufferView": 2,
      "byteOffset": 1944,
      "componentType": 5126,
      "count": 17,
      "max": [
        16.81301498413086,
        2.32037091255188,
        16.81301498413086
      ],
      "min": [
        -16.81301498413086,
        2.32037091255188,
        -16.81301498413086
      ],
      "type": "VEC3"
    },
    {
      "bufferView": 2,
      "byteOffset": 2148,
      "componentType": 5126,
      "count": 17,
      "max": [
        0.0,
        1.0,
        3.3921722319973924e-08
      ],
      "min": [
        0.0,
        1.0,
        -3.392166902926874e-08
      ],
      "type": "VEC3"
    },
    {
      "bufferView": 1,
      "byteOffset": 1296,
      "componentType": 5126,
      "count": 17,
      "max": [
        0.3950044512748718,
        0.3911036252975464
      ],
      "min": [
        0.12349404394626617,
        0.11959324777126312
      ],
      "type": "VEC2"
    },
    {
      "bufferView": 1,
      "byteOffset": 1432,
      "componentType": 5126,
      "count": 17,
      "max": [
        0.3950044512748718,
        0.3911036252975464
      ],
      "min": [
        0.12349404394626617,
        0.11959324777126312
      ],
      "type": "VEC2"
    },
    {
      "bufferView": 0,
      "byteOffset": 960,
      "componentType": 5125,
      "count": 48,
      "type": "SCALAR"
    },
    {
      "bufferView": 2,
      "byteOffset": 2352,
      "componentType": 5126,
      "count": 17,
      "max": [
        -15.331808090209961,
        9.713349342346191,
        30.787914276123047
      ],
      "min": [
        -29.133392333984375,
        9.713349342346191,
        16.986328125
      ],
      "type": "VEC3"
    },
    {
      "bufferView": 2,
      "byteOffset": 2556,
      "componentType": 5126,
      "count": 17,
      "max": [
        0.0,
        1.0,
        2.0135887268679653e-07
      ],
      "min": [
        0.0,
        1.0,
        -4.027172906262422e-07
      ],
      "type": "VEC3"
    },
    {
      "bufferView": 1,
      "byteOffset": 1568,
      "componentType": 5126,
      "count": 17,
      "max": [
        0.9929475784301758,
        0.9807758331298828
      ],
      "min": [
        0.7864581346511841,
        0.7742863297462463
      ],
      "type": "VEC2"
    },
    {
      "bufferView": 1,
      "byteOffset": 1704,
      "componentType": 5126,
      "count": 17,
      "max": [
        0.9929475784301758,
        0.9807758331298828
      ],
      "min": [
        0.7864581346511841,
        0.7742863297462463
      ],
      "type": "VEC2"
    },
    {
      "bufferView": 0,
      "byteOffset": 1152,
      "componentType": 5125,
      "count": 48,
      "type": "SCALAR"
    },
    {
      "bufferView": 2,
      "byteOffset": 2760,
      "componentType": 5126,
      "count": 17,
      "max": [
        30.0371150970459,
        9.713349342346191,
        30.337940216064453
      ],
      "min": [
        16.235530853271484,
        9.713349342346191,
        16.536357879638672
      ],
      "type": "VEC3"
    },
    {
      "bufferView": 2,
      "byteOffset": 2964,
      "componentType": 5126,
      "count": 17,
      "max": [
        0.0,
        1.0,
        2.013591284821814e-07
      ],
      "min": [
        0.0,
        1.0,
        -4.0271737589137047e-07
      ],
      "type": "VEC3"
    },
    {
      "bufferView": 1,
      "byteOffset": 1840,
      "componentType": 5126,
      "count": 17,
      "max": [
        0.9880096912384033,
        0.730003833770752
      ],
      "min": [
        0.7802352905273438,
        0.5222294926643372
      ],
      "type": "VEC2"
    },
    {
      "bufferView": 1,
      "byteOffset": 1976,
      "componentType": 5126,
      "count": 17,
      "max": [
        0.9880096912384033,
        0.730003833770752
      ],
      "min": [
        0.7802352905273438,
        0.5222294926643372
      ],
      "type": "VEC2"
    },
    {
      "bufferView": 0,
      "byteOffset": 1344,
      "componentType": 5125,
      "count": 48,
      "type": "SCALAR"
    },
    {
      "bufferView": 2,
      "byteOffset": 3168,
      "componentType": 5126,
      "count": 17,
      "max": [
        29.508548736572266,
        9.713349342346191,
        -15.95840072631836
      ],
      "min": [
        15.706964492797852,
        9.713349342346191,
        -29.75998306274414
      ],
      "type": "VEC3"
    },
    {
      "bufferView": 2,
      "byteOffset": 3372,
      "componentType": 5126,
      "count": 17,
      "max": [
        0.0,
        1.0,
        2.0135881584337767e-07
      ],
      "min": [
        0.0,
        1.0,
        -2.0135888689765125e-07
      ],
      "type": "VEC3"
    },
    {
      "bufferView": 1,
      "byteOffset": 2112,
      "componentType": 5126,
      "count": 17,
      "max": [
        0.7440447211265564,
        0.7287218570709229
      ],
      "min": [
        0.5364230871200562,
        0.5211002230644226
      ],
      "type": "VEC2"
    },
    {
      "bufferView": 1,
      "byteOffset": 2248,
      "componentType": 5126,
      "count": 17,
      "max": [
        0.7440447211265564,
        0.7287218570709229
      ],
      "min": [
        0.5364230871200562,
        0.5211002230644226
      ],
      "type": "VEC2"
    },
    {
      "bufferView": 0,
      "byteOffset": 1536,
      "componentType": 5125,
      "count": 48,
      "type": "SCALAR"
    },
    {
      "bufferView": 2,
      "byteOffset": 3576,
      "componentType": 5126,
      "count": 17,
      "max": [
        -16.383380889892578,
        9.713349342346191,
        -15.82253646850586
      ],
      "min": [
        -30.184965133666992,
        9.713349342346191,
        -29.624120712280273
      ],
      "type": "VEC3"
    },
    {
      "bufferView": 2,
      "byteOffset": 3780,
      "componentType": 5126,
      "count": 17,
      "max": [
        0.0,
        1.0,
        4.0271709167427616e-07
      ],
      "min": [
        0.0,
        1.0,
        -2.0135888689765125e-07
      ],
      "type": "VEC3"
    },
    {
      "bufferView": 1,
      "byteOffset": 2384,
      "componentType": 5126,
      "count": 17,
      "max": [
        0.7444480657577515,
        0.9788265228271484
      ],
      "min": [
        0.5370439291000366,
        0.7714223861694336
      ],
      "type": "VEC2"
    },
    {
      "bufferView": 1,
      "byteOffset": 2520,
      "componentType": 5126,
      "count": 17,
      "max": [
        0.7444480657577515,
        0.9788265228271484
      ],
      "min": [
        0.5370439291000366,
        0.7714223861694336
      ],
      "type": "VEC2"
    },
    {
      "bufferView": 0,
      "byteOffset": 1728,
      "componentType": 5125,
      "count": 48,
      "type": "SCALAR"
    },
    {
      "bufferView": 2,
      "byteOffset": 3984,
      "componentType": 5126,
      "count": 17,
      "max": [
        9.906597137451172,
        4.072742462158203,
        -29.57012176513672
      ],
      "min": [
        -9.809951782226563,
        4.072742462158203,
        -49.28667068481445
      ],
      "type": "VEC3"
    },
    {
      "bufferView": 2,
      "byteOffset": 4188,
      "componentType": 5126,
      "count": 17,
      "max": [
        0.0,
        1.0,
        4.9332900431409143e-08
      ],
      "min": [
        0.0,
        1.0,
        -9.86659003388013e-08
      ],
      "type": "VEC3"
    },
    {
      "bufferView": 1,
      "byteOffset": 2656,
      "componentType": 5126,
      "count": 17,
      "max": [
        0.7439275979995728,
        0.22647148370742798
      ],
      "min": [
        0.5375198125839233,
        0.02006378024816513
      ],
      "type": "VEC2"
    },
    {
      "bufferView": 1,
      "byteOffset": 2792,
      "componentType": 5126,
      "count": 17,
      "max": [
        0.7439275979995728,
        0.22647148370742798
      ],
      "min": [
        0.5375198125839233,
        0.02006378024816513
      ],
      "type": "VEC2"
    },
    {
      "bufferView": 0,
      "byteOffset": 1920,
      "componentType": 5125,
      "count": 48,
      "type": "SCALAR"
    },
    {
      "bufferView": 2,
      "byteOffset": 4392,
      "componentType": 5126,
      "count": 17,
      "max": [
        9.724308967590332,
        4.072742462158203,
        49.202327728271484
      ],
      "min": [
        -9.992239952087402,
        4.072742462158203,
        29.485780715942383
      ],
      "type": "VEC3"
    },
    {
      "bufferView": 2,
      "byteOffset": 4596,
      "componentType": 5126,
      "count": 17,
      "max": [
        0.0,
        1.0,
        4.933294306397329e-08
      ],
      "min": [
        0.0,
        1.0,
        -9.866587191709186e-08
      ],
      "type": "VEC3"
    },
    {
      "bufferView": 1,
      "byteOffset": 2928,
      "componentType": 5126,
      "count": 17,
      "max": [
        0.9835680723190308,
        0.48489415645599365
      ],
      "min": [
        0.7776634097099304,
        0.2789895534515381
      ],
      "type": "VEC2"
    },
    {
      "bufferView": 1,
      "byteOffset": 3064,
      "componentType": 5126,
      "count": 17,
      "max": [
        0.9835680723190308,
        0.48489415645599365
      ],
      "min": [
        0.7776634097099304,
        0.2789895534515381
      ],
      "type": "VEC2"
    },
    {
      "bufferView": 0,
      "byteOffset": 2112,
      "componentType": 5125,
      "count": 48,
      "type": "SCALAR"
    },
    {
      "bufferView": 2,
      "byteOffset": 4800,
      "componentType": 5126,
      "count": 17,
      "max": [
        49.616798400878906,
        4.072742462158203,
        9.923344612121582
      ],
      "min": [
        29.900253295898438,
        4.072742462158203,
        -9.793201446533203
      ],
      "type": "VEC3"
    },
    {
      "bufferView": 2,
      "byteOffset": 5004,
      "componentType": 5126,
      "count": 17,
      "max": [
        0.0,
        1.0,
        4.933293951125961e-08
      ],
      "min": [
        0.0,
        1.0,
        -4.9332953722114326e-08
      ],
      "type": "VEC3"
    },
    {
      "bufferView": 1,
      "byteOffset": 3200,
      "componentType": 5126,
      "count": 17,
      "max": [
        0.9805704355239868,
        0.225237175822258
      ],
      "min": [
        0.7747178673744202,
        0.019384749233722687
      ],
      "type": "VEC2"
    },
    {
      "bufferView": 1,
      "byteOffset": 3336,
      "componentType": 5126,
      "count": 17,
      "max": [
        0.9805704355239868,
        0.225237175822258
      ],
      "min": [
        0.7747178673744202,
        0.019384749233722687
      ],
      "type": "VEC2"
    },
    {
      "bufferView": 0,
      "byteOffset": 2304,
      "componentType": 5125,
      "count": 48,
      "type": "SCALAR"
    },
    {
      "bufferView": 2,
      "byteOffset": 5208,
      "componentType": 5126,
      "count": 17,
      "max": [
        9.858274459838867,
        13.172118186950684,
        9.85827350616455
      ],
      "min": [
        -9.858274459838867,
        13.172118186950684,
        -9.858274459838867
      ],
      "type": "VEC3"
    },
    {
      "bufferView": 2,
      "byteOffset": 5412,
      "componentType": 5126,
      "count": 17,
      "max": [
        0.0,
        1.0,
        1.973316159364913e-07
      ],
      "min": [
        0.0,
        1.0,
        -9.866575112482678e-08
      ],
      "type": "VEC3"
    },
    {
      "bufferView": 1,
      "byteOffset": 3472,
      "componentType": 5126,
      "count": 17,
      "max": [
        0.3362773656845093,
        0.8441404104232788
      ],
      "min": [
        0.1620693802833557,
        0.66993248462677
      ],
      "type": "VEC2"
    },
    {
      "bufferView": 1,
      "byteOffset": 3608,
      "componentType": 5126,
      "count": 17,
      "max": [
        0.3362773656845093,
        0.8441404104232788
      ],
      "min": [
        0.1620693802833557,
        0.66993248462677
      ],
      "type": "VEC2"
    },
    {
      "bufferView": 0,
      "byteOffset": 2496,
      "componentType": 5125,
      "count": 48,
      "type": "SCALAR"
    }
  ],
  "asset": {
    "extras": {
      "author": "RBG_illustrations (https://sketchfab.com/RBG_illustrations)",
      "license": "CC-BY-4.0 (http://creativecommons.org/licenses/by/4.0/)",
      "source": "https://sketchfab.com/3d-models/magic-circle-0f6e45cbbacb47ff871e1ed1ef84df0f",
      "title": "Magic Circle"
    },
    "generator": "Sketchfab-12.67.0",
    "version": "2.0"
  },
  "bufferViews": [
    {
      "buffer": 0,
      "byteLength": 2688,
      "name": "floatBufferViews",
      "target": 34963
    },
    {
      "buffer": 0,
      "byteLength": 3744,
      "byteOffset": 2688,
      "byteStride": 8,
      "name": "floatBufferViews",
      "target": 34962
    },
    {
      "buffer": 0,
      "byteLength": 5616,
      "byteOffset": 6432,
      "byteStride": 12,
      "name": "floatBufferViews",
      "target": 34962
    }
  ],
  "buffers": [
    {
      "byteLength": 12048,
      "uri": "scene.bin"
    }
  ],
  "images": [
    {
      "uri": "textures/magic_circle_baseColor.png"
    }
  ],
  "materials": [
    {
      "alphaMode": "BLEND",
      "doubleSided": true,
      "name": "magic_circle",
      "pbrMetallicRoughness": {
        "baseColorTexture": {
          "index": 0
        },
        "metallicFactor": 0.0
      }
    }
  ],
  "meshes": [
    {
      "name": "base_magic_circle_0",
      "primitives": [
        {
          "attributes": {
            "NORMAL": 1,
            "POSITION": 0,
            "TEXCOORD_0": 2,
            "TEXCOORD_1": 3
          },
          "indices": 4,
          "material": 0,
          "mode": 4
        }
      ]
    },
    {
      "name": "big_star_magic_circle_0",
      "primitives": [
        {
          "attributes": {
            "NORMAL": 6,
            "POSITION": 5,
            "TEXCOORD_0": 7,
            "TEXCOORD_1": 8
          },
          "indices": 9,
          "material": 0,
          "mode": 4
        }
      ]
    },
    {
      "name": "little_star_magic_circle_0",
      "primitives": [
        {
          "attributes": {
            "NORMAL": 11,
            "POSITION": 10,
            "TEXCOORD_0": 12,
            "TEXCOORD_1": 13
          },
          "indices": 14,
          "material": 0,
          "mode": 4
        }
      ]
    },
    {
      "name": "base_middle_cicrle_magic_circle_0",
      "primitives": [
        {
          "attributes": {
            "NORMAL": 16,
            "POSITION": 15,
            "TEXCOORD_0": 17,
            "TEXCOORD_1": 18
          },
          "indices": 19,
          "material": 0,
          "mode": 4
        }
      ]
    },
    {
      "name": "crossed_box_rune_magic_circle_0",
      "primitives": [
        {
          "attributes": {
            "NORMAL": 21,
            "POSITION": 20,
            "TEXCOORD_0": 22,
            "TEXCOORD_1": 23
          },
          "indices": 24,
          "material": 0,
          "mode": 4
        }
      ]
    },
    {
      "name": "line_rune_magic_circle_0",
      "primitives": [
        {
          "attributes": {
            "NORMAL": 26,
            "POSITION": 25,
            "TEXCOORD_0": 27,
            "TEXCOORD_1": 28
          },
          "indices": 29,
          "material": 0,
          "mode": 4
        }
      ]
    },
    {
      "name": "bolt_rune_magic_circle_0",
      "primitives": [
        {
          "attributes": {
            "NORMAL": 31,
            "POSITION": 30,
            "TEXCOORD_0": 32,
            "TEXCOORD_1": 33
          },
          "indices": 34,
          "material": 0,
          "mode": 4
        }
      ]
    },
    {
      "name": "tall_rune_magic_circle_0",
      "primitives": [
        {
          "attributes": {
            "NORMAL": 36,
            "POSITION": 35,
            "TEXCOORD_0": 37,
            "TEXCOORD_1": 38
          },
          "indices": 39,
          "material": 0,
          "mode": 4
        }
      ]
    },
    {
      "name": "up_rune_magic_circle_0",
      "primitives": [
        {
          "attributes": {
            "NORMAL": 41,
            "POSITION": 40,
            "TEXCOORD_0": 42,
            "TEXCOORD_1": 43
          },
          "indices": 44,
          "material": 0,
          "mode": 4
        }
      ]
    },
    {
      "name": "down_rune_magic_circle_0",
      "primitives": [
        {
          "attributes": {
            "NORMAL": 46,
            "POSITION": 45,
            "TEXCOORD_0": 47,
            "TEXCOORD_1": 48
          },
          "indices": 49,
          "material": 0,
          "mode": 4
        }
      ]
    },
    {
      "name": "little_star7_magic_circle_0",
      "primitives": [
        {
          "attributes": {
            "NORMAL": 51,
            "POSITION": 50,
            "TEXCOORD_0": 52,
            "TEXCOORD_1": 53
          },
          "indices": 54,
          "material": 0,
          "mode": 4
        }
      ]
    },
    {
      "name": "little_star8_magic_circle_0",
      "primitives": [
        {
          "attributes": {
            "NORMAL": 56,
            "POSITION": 55,
            "TEXCOORD_0": 57,
            "TEXCOORD_1": 58
          },
          "indices": 59,
          "material": 0,
          "mode": 4
        }
      ]
    }
  ],
  "nodes": [
    {
      "children": [
        1
      ],
      "matrix": [
        1.0,
        0.0,
        0.0,
        0.0,
        0.0,
        2.220446049250313e-16,
        -1.0,
        0.0,
        0.0,
        1.0,
        2.220446049250313e-16,
        0.0,
        0.0,
        0.0,
        0.0,
        1.0
      ],
      "name": "Sketchfab_model"
    },
    {
      "children": [
        2
      ],
      "matrix": [
        1.0,
        0.0,
        0.0,
        0.0,
        0.0,
        0.0,
        1.0,
        0.0,
        0.0,
        -1.0,
        0.0,
        0.0,
        0.0,
        0.0,
        0.0,
        1.0
      ],
      "name": "magic circle model.fbx"
    },
    {
      "children": [
        3,
        5,
        7,
        9,
        11,
        13,
        15,
        17,
        19,
        21,
        23,
        25
      ],
      "name": "RootNode"
    },
    {
      "children": [
        4
      ],
      "name": "base"
    },
    {
      "mesh": 0,
      "name": "base_magic_circle_0"
    },
    {
      "children": [
        6
      ],
      "name": "big_star"
    },
    {
      "mesh": 1,
      "name": "big_star_magic_circle_0"
    },
    {
      "children": [
        8
      ],
      "name": "little_star"
    },
    {
      "mesh": 2,
      "name": "little_star_magic_circle_0"
    },
    {
      "children": [
        10
      ],
      "name": "base_middle_cicrle"
    },
    {
      "mesh": 3,
      "name": "base_middle_cicrle_magic_circle_0"
    },
    {
      "children": [
        12
      ],
      "name": "crossed_box_rune"
    },
    {
      "mesh": 4,
      "name": "crossed_box_rune_magic_circle_0"
    },
    {
      "children": [
        14
      ],
      "name": "line_rune"
    },
    {
      "mesh": 5,
      "name": "line_rune_magic_circle_0"
    },
    {
      "children": [
        16
      ],
      "name": "bolt_rune"
    },
    {
      "mesh": 6,
      "name": "bolt_rune_magic_circle_0"
    },
    {
      "children": [
        18
      ],
      "name": "tall_rune"
    },
    {
      "mesh": 7,
      "name": "tall_rune_magic_circle_0"
    },
    {
      "children": [
        20
      ],
      "name": "up_rune"
    },
    {
      "mesh": 8,
      "name": "up_rune_magic_circle_0"
    },
    {
      "children": [
        22
      ],
      "name": "down_rune"
    },
    {
      "mesh": 9,
      "name": "down_rune_magic_circle_0"
    },
    {
      "children": [
        24
      ],
      "name": "little_star7"
    },
    {
      "mesh": 10,
      "name": "little_star7_magic_circle_0"
    },
    {
      "children": [
        26
      ],
      "name": "little_star8"
    },
    {
      "mesh": 11,
      "name": "little_star8_magic_circle_0"
    }
  ],
  "samplers": [
    {
      "magFilter": 9729,
      "minFilter": 9987,
      "wrapS": 10497,
      "wrapT": 10497
    }
  ],
  "scene": 0,
  "scenes": [
    {
      "name": "Sketchfab_Scene",
      "nodes": [
        0
      ]
    }
  ],
  "textures": [
    {
      "sampler": 0,
      "source": 0
    }
  ]
}
